<mxfile host="Electron" modified="2023-10-31T10:12:07.034Z" agent="Mozilla/5.0 (Windows NT 10.0; Win64; x64) AppleWebKit/537.36 (KHTML, like Gecko) draw.io/21.6.8 Chrome/114.0.5735.289 Electron/25.5.0 Safari/537.36" etag="YXAosoxRETWM_R8bAxqo" version="21.6.8" type="device">
  <diagram name="Page-1" id="OmlffKOQpLlPQY9QohWP">
    <mxGraphModel dx="546" dy="847" grid="1" gridSize="10" guides="1" tooltips="1" connect="1" arrows="1" fold="1" page="1" pageScale="1" pageWidth="2336" pageHeight="1654" math="0" shadow="0">
      <root>
        <mxCell id="0" />
        <mxCell id="1" parent="0" />
        <mxCell id="O7lJgbH5r5F2X_CErBDh-1" value="&lt;p style=&quot;margin:0px;margin-top:4px;margin-left:10px;text-align:left;&quot;&gt;&lt;b&gt;AD &lt;/b&gt;Player_UC01&lt;/p&gt;" style="html=1;shape=mxgraph.sysml.package;html=1;overflow=fill;whiteSpace=wrap;labelX=111;" parent="1" vertex="1">
          <mxGeometry x="70" y="220" width="430" height="560" as="geometry" />
        </mxCell>
        <mxCell id="O7lJgbH5r5F2X_CErBDh-6" style="edgeStyle=orthogonalEdgeStyle;rounded=0;orthogonalLoop=1;jettySize=auto;html=1;" parent="1" source="O7lJgbH5r5F2X_CErBDh-2" target="O7lJgbH5r5F2X_CErBDh-5" edge="1">
          <mxGeometry relative="1" as="geometry" />
        </mxCell>
        <mxCell id="O7lJgbH5r5F2X_CErBDh-2" value="Start Wifi Connection&lt;br&gt;Start TCP Client&lt;br&gt;Connect to GameLeader TCP Server" style="shape=rect;html=1;rounded=1;whiteSpace=wrap;align=center;" parent="1" vertex="1">
          <mxGeometry x="230" y="430" width="220" height="80" as="geometry" />
        </mxCell>
        <mxCell id="cjKedkzl2f7HCVAz5h5U-3" style="edgeStyle=orthogonalEdgeStyle;rounded=0;orthogonalLoop=1;jettySize=auto;html=1;" edge="1" parent="1" source="O7lJgbH5r5F2X_CErBDh-3" target="cjKedkzl2f7HCVAz5h5U-2">
          <mxGeometry relative="1" as="geometry" />
        </mxCell>
        <mxCell id="O7lJgbH5r5F2X_CErBDh-3" value="" style="shape=ellipse;html=1;fillColor=strokeColor;strokeWidth=2;verticalLabelPosition=bottom;verticalAlignment=top;perimeter=ellipsePerimeter;" parent="1" vertex="1">
          <mxGeometry x="320" y="280" width="40" height="40" as="geometry" />
        </mxCell>
        <mxCell id="O7lJgbH5r5F2X_CErBDh-9" value="[else]" style="edgeStyle=orthogonalEdgeStyle;rounded=0;orthogonalLoop=1;jettySize=auto;html=1;" parent="1" source="O7lJgbH5r5F2X_CErBDh-5" target="O7lJgbH5r5F2X_CErBDh-7" edge="1">
          <mxGeometry x="0.0345" y="-15" relative="1" as="geometry">
            <mxPoint as="offset" />
          </mxGeometry>
        </mxCell>
        <mxCell id="O7lJgbH5r5F2X_CErBDh-11" value="[connection succesful]" style="edgeStyle=orthogonalEdgeStyle;rounded=0;orthogonalLoop=1;jettySize=auto;html=1;" parent="1" source="O7lJgbH5r5F2X_CErBDh-5" target="cjKedkzl2f7HCVAz5h5U-1" edge="1">
          <mxGeometry y="-60" relative="1" as="geometry">
            <mxPoint as="offset" />
            <mxPoint x="340" y="730" as="targetPoint" />
          </mxGeometry>
        </mxCell>
        <mxCell id="O7lJgbH5r5F2X_CErBDh-5" value="" style="rhombus;whiteSpace=wrap;html=1;" parent="1" vertex="1">
          <mxGeometry x="315" y="580" width="50" height="50" as="geometry" />
        </mxCell>
        <mxCell id="O7lJgbH5r5F2X_CErBDh-8" style="edgeStyle=orthogonalEdgeStyle;rounded=0;orthogonalLoop=1;jettySize=auto;html=1;" parent="1" source="O7lJgbH5r5F2X_CErBDh-7" target="O7lJgbH5r5F2X_CErBDh-2" edge="1">
          <mxGeometry relative="1" as="geometry">
            <mxPoint x="180" y="470" as="targetPoint" />
            <Array as="points">
              <mxPoint x="160" y="470" />
            </Array>
          </mxGeometry>
        </mxCell>
        <mxCell id="O7lJgbH5r5F2X_CErBDh-7" value="Display &quot;No Connection to Game Leader&quot;" style="shape=rect;html=1;rounded=1;whiteSpace=wrap;align=center;" parent="1" vertex="1">
          <mxGeometry x="90" y="565" width="140" height="80" as="geometry" />
        </mxCell>
        <mxCell id="cjKedkzl2f7HCVAz5h5U-5" style="edgeStyle=orthogonalEdgeStyle;rounded=0;orthogonalLoop=1;jettySize=auto;html=1;" edge="1" parent="1" source="cjKedkzl2f7HCVAz5h5U-1" target="cjKedkzl2f7HCVAz5h5U-2">
          <mxGeometry relative="1" as="geometry">
            <Array as="points">
              <mxPoint x="470" y="730" />
              <mxPoint x="470" y="370" />
            </Array>
          </mxGeometry>
        </mxCell>
        <mxCell id="cjKedkzl2f7HCVAz5h5U-1" value="Start UC02" style="html=1;shape=mxgraph.sysml.sendSigAct;strokeWidth=2;whiteSpace=wrap;align=center;" vertex="1" parent="1">
          <mxGeometry x="290" y="700" width="100" height="60" as="geometry" />
        </mxCell>
        <mxCell id="cjKedkzl2f7HCVAz5h5U-4" style="edgeStyle=orthogonalEdgeStyle;rounded=0;orthogonalLoop=1;jettySize=auto;html=1;" edge="1" parent="1" source="cjKedkzl2f7HCVAz5h5U-2" target="O7lJgbH5r5F2X_CErBDh-2">
          <mxGeometry relative="1" as="geometry" />
        </mxCell>
        <mxCell id="cjKedkzl2f7HCVAz5h5U-2" value="Start UC01" style="html=1;shape=mxgraph.sysml.accEvent;strokeWidth=2;whiteSpace=wrap;align=center;" vertex="1" parent="1">
          <mxGeometry x="290" y="340" width="100" height="60" as="geometry" />
        </mxCell>
      </root>
    </mxGraphModel>
  </diagram>
</mxfile>
